<svg height="20" viewBox="0 0 20 20" width="20" xmlns="http://www.w3.org/2000/svg"><path d="m3.77324649 16.1599727c-.81940689-1.05962-1.06364421-1.405587-1.24948407-1.7448892-.02396021-.0439455-.02396021-.0439455-.03965307-.0727538-.05297217-.0958877-.08824467-.160324-.12245098-.2259692-.05534075-.1062044-.10138602-.2035201-.1405206-.3009321-.17343002-.4316939-.20631958-.8122184.07007589-1.16443.48588713-.6191675 1.27375697-.4454394 1.93807953.1225309.42790027.3658383 1.06572061 1.0206423 1.45461018 1.486175.25541571.3057536.72031773.6213626 1.05957509.7340164.03550419.0117895.06906563.0207666.10102847.0270572l.17731974-.5597951c-.68834661-.2423065-1.31187019-.5639434-1.86875346-.965216-1.29912836-.9361109-2.4303665-2.7724691-2.33338865-4.17391481.06126198-.88530891.36044022-1.75242403.8896007-2.59611228-.04837619-.48350645-.07276312-.89547061-.07276312-1.23800584 0-.48864843.16034201-1.02008439.46704653-1.60283703.11085078-.21062156.32767855-.34523139.5668267-.35189423.55120766-.01535704 1.08439218.04135003 1.59786546.1705528.4547538.11442748.93553609.31646605 1.44500043.6040767.76204212-.15801516 1.50066522-.23736875 2.21555718-.23736875.71694726 0 1.46340296.07981024 2.23919146.23866998.6623179-.37129464 1.2439283-.62340724 1.7521251-.75497964.6607934-.17107975 1.2536332-.12084866 1.7429189.18202311.067354.04169266.1265939.09510217.1748797.15766809.2996148.38822278.4663869.90339382.520753 1.53848537.0414576.48429643.0262594.9653283-.045572 1.44205438.4333386.65130388.714564 1.48321651.8534319 2.4907188.2264309 1.64278045-.524496 3.33562145-1.7176315 4.31079335-.5560976.454509-1.3203048.8112259-2.2938118 1.0810017.0615599.2153097.1056964.4304561.1321663.645318.0436564.3543679.0745609 1.3042173.0954314 2.8890764 1.1018459-.573209 1.9576733-1.1395622 2.5656894-1.6939483 1.0342749-.9430469 1.8147932-2.2815868 2.3227002-3.8352461.4248239-1.2995127.5070992-2.3965043.2964567-3.60587144-.2561834-1.47083276-.6262314-2.66884635-1.1840043-3.63150321-.651937-1.12517422-1.69186-2.18918246-2.9354976-2.96771899-1.1907442-.74542444-3.1202124-1.24441722-4.64022776-1.24441722-1.59589553 0-3.38207308.51700109-4.73647195 1.47247445-1.31852457.93016549-2.41039771 2.32934156-3.04354965 3.70334344-.50117996 1.08760973-.70674691 2.24637896-.70674691 3.95757707 0 1.3859952.50375352 3.0702433 1.09791735 4.1242132.46905181.8320373 1.13464699 1.6206448 2.11365057 2.4764465.49336811.4312806 1.19078993.8625018 2.09046789 1.2884057v-.4225978c-1.20497243-.2800403-2.16326595-.8644332-2.84983835-1.7522775zm-.35706657-2.9221003c-.00012415-.0029923-.00031133-.0059179-.00055817-.0087738.00008503.0009838.00026691.0022487.00054756.0037834zm1.4046669 2.1225762c.57092826.7382986 1.41131869 1.1910916 2.55938943 1.359754.3239542.0475919.56389762.3238044.56389762.6491345v1.9736991c0 .4674937-.47807841.7850409-.91294137.60639-1.47493475-.6059343-2.59732145-1.2411812-3.37125546-1.9177201-1.08592486-.9492675-1.84719498-1.8512322-2.39357286-2.820436-.69825194-1.2386088-1.26636418-3.1380336-1.26636418-4.7654875 0-1.88579599.23773494-3.22589431.82662847-4.50385111.72452463-1.57228959 1.95901556-3.1542226 3.47985039-4.22710977 1.5880727-1.12032074 3.64200319-1.71482172 5.50133868-1.71482172 1.75836236 0 3.93177306.5620804 5.34451436 1.44647849 1.4236976.89125694 2.6156432 2.1108086 3.3761344 3.42333585.6483995 1.11906893 1.060497 2.4532158 1.3407867 4.0624504.2475 1.42097826.1490342 2.73384036-.3417138 4.23501126-.5731333 1.7531829-1.4660953 3.2845568-2.6858776 4.3967484-.8814726.8037224-2.1557849 1.5911643-3.8265721 2.3726894-.4357429.2038224-.9374889-.1092546-.9418725-.587705-.0196863-2.1486309-.0536691-3.4341111-.0972125-3.7875622-.0393464-.3193827-.1376949-.6487812-.297439-.9893901-.1791966-.3820855.0455248-.8305186.4604236-.9187788 1.1442002-.2434023 1.9684986-.5806637 2.470622-.9910586.8539905-.6979824 1.4092905-1.9498147 1.2480997-3.11927154-.1276126-.92584344-.386948-1.62598464-.7639374-2.10766169-.1174855-.1501105-.1636506-.34346802-.1265418-.53000632.0894169-.44948002.1144563-.90286095.0751573-1.36194208-.0279614-.3266385-.0925853-.57282814-.1831627-.74225151-.1451987-.04813175-.3413239-.04567213-.6059412.02283742-.4304938.11145506-.9808005.35927823-1.6408878.74533761-.1449701.08478737-.3170424.11142806-.4811085.0744865-.7745973-.17441041-1.5086741-.26109649-2.20247026-.26109649-.69315801 0-1.41921685.08652808-2.17860722.26053919-.16803871.03850537-.34457253.01019672-.49188191-.07887731-.49070107-.29671378-.93019083-.49186021-1.31442867-.5885441-.27040849-.06804156-.54913523-.11000375-.8367262-.12574697-.10127991.25096244-.14960327.46447539-.14960327.63771206 0 .34260305.02961626.78640288.08946494 1.32812479.01697352.15363617-.02118671.30829368-.10775534.43671575-.48811714.72410774-.75199978 1.44166862-.8016577 2.15928489-.06124742.8850984.82683358 2.3267355 1.79109016 3.0215484.59474022.428551 1.29091469.7494685 2.09260878.9620666.36347731.0963891.57263705.4744616.45971175.8309646l-.50256869 1.5866001c-.0606021.1913197-.20595183.3445994-.39457789.4161052-.4010694.1520405-.82925259.1520405-1.25919614.0092735-.57238926-.1900675-1.24446299-.6463196-1.65736627-1.1405987-.10106889-.1209878-.22316828-.2584996-.35457953-.4003823.13605246.1800523.30239105.3969964.50810158.6630119z" fill="#555"/></svg>